<?xml version="1.0" encoding="UTF-8"?>
<svg width="2560px" height="1600px" viewBox="0 0 2560 1600" xmlns="http://www.w3.org/2000/svg" xmlns:xlink="http://www.w3.org/1999/xlink" version="1.1">
 <!-- Generated by Pixelmator Pro 1.3.1 -->
 <defs>
  <text id="string" transform="matrix(1.0 0.0 0.0 1.0 648.0 600.5)">
   <tspan x="1.3999999999999773" y="308.0" font-family="Helvetica-Light, Helvetica" font-size="400" text-decoration="none" fill="#ffffff">P</tspan>
   <tspan x="277.79999999999995" y="308.0" font-family="Helvetica-Light, Helvetica" font-size="400" text-decoration="none" fill="#ffffff">M</tspan>
   <tspan x="643.0" y="308.0" font-family="Helvetica-Light, Helvetica" font-size="400" text-decoration="none" fill="#ffffff">M</tspan>
   <tspan x="1008.2" y="308.0" font-family="Helvetica-Light, Helvetica" font-size="400" text-decoration="none" fill="#ffffff">L</tspan>
  </text>
 </defs>
 <use id="pmml" xlink:href="#string"/>
 <defs>
  <path id="path" d="M175 1358 L2175 1358 2175 369 175 369 Z"/>
 </defs>
 <defs>
  <path id="stroke-path" d="M2160 384 L190 384 190 1343 2160 1343 Z"/>
 </defs>
 <use id="사각형" stroke="#ffffff" stroke-opacity="1" stroke-linecap="round" fill="none" stroke-width="30" xlink:href="#stroke-path"/>
 <defs>
  <path id="path-1" d="M275 1258 L2275 1258 2275 269 275 269 Z"/>
 </defs>
 <defs>
  <path id="stroke-path-1" d="M2260 284 L290 284 290 1243 2260 1243 Z"/>
 </defs>
 <use id="사각형-1" stroke="#ffffff" stroke-opacity="1" stroke-linecap="round" fill="none" stroke-width="30" xlink:href="#stroke-path-1"/>
 <defs>
  <path id="path-2" d="M375 1158 L2375 1158 2375 169 375 169 Z"/>
 </defs>
 <defs>
  <path id="stroke-path-2" d="M2360 184 L390 184 390 1143 2360 1143 Z"/>
 </defs>
 <use id="사각형-2" stroke="#ffffff" stroke-opacity="1" stroke-linecap="round" fill="none" stroke-width="30" xlink:href="#stroke-path-2"/>
</svg>
