<?xml version="1.0" encoding="UTF-8"?>
<svg width="2560px" height="1600px" viewBox="0 0 2560 1600" xmlns="http://www.w3.org/2000/svg" xmlns:xlink="http://www.w3.org/1999/xlink" version="1.1">
 <!-- Generated by Pixelmator Pro 1.3.1 -->
 <defs>
  <text id="string" transform="matrix(1.0 0.0 0.0 1.0 556.0 550.5)">
   <tspan x="1.7099609375" y="385.0" font-family="Helvetica, Helvetica" font-size="500" text-decoration="none" fill="#ffffff">P</tspan>
   <tspan x="335.2060546875" y="385.0" font-family="Helvetica, Helvetica" font-size="500" text-decoration="none" fill="#ffffff">M</tspan>
   <tspan x="751.7099609375" y="385.0" font-family="Helvetica, Helvetica" font-size="500" text-decoration="none" fill="#ffffff">M</tspan>
   <tspan x="1168.2138671875" y="385.0" font-family="Helvetica, Helvetica" font-size="500" text-decoration="none" fill="#ffffff">L</tspan>
  </text>
 </defs>
 <use id="pmml" xlink:href="#string"/>
 <defs>
  <path id="path" d="M203 1365 L2203 1365 2203 365 203 365 Z"/>
 </defs>
 <defs>
  <path id="stroke-path" d="M2178 390 L228 390 228 1340 2178 1340 Z"/>
 </defs>
 <use id="사각형" stroke="#ffffff" stroke-opacity="1" stroke-linecap="round" fill="none" stroke-width="50" xlink:href="#stroke-path"/>
 <defs>
  <path id="path-1" d="M296 1255 L2296 1255 2296 255 296 255 Z"/>
 </defs>
 <defs>
  <path id="stroke-path-1" d="M2271 280 L321 280 321 1230 2271 1230 Z"/>
 </defs>
 <use id="사각형-1" stroke="#ffffff" stroke-opacity="1" stroke-linecap="round" fill="none" stroke-width="50" xlink:href="#stroke-path-1"/>
 <defs>
  <path id="path-2" d="M389 1145 L2389 1145 2389 145 389 145 Z"/>
 </defs>
 <defs>
  <path id="stroke-path-2" d="M2364 170 L414 170 414 1120 2364 1120 Z"/>
 </defs>
 <use id="사각형-2" stroke="#ffffff" stroke-opacity="1" stroke-linecap="round" fill="none" stroke-width="50" xlink:href="#stroke-path-2"/>
</svg>
